<?xml version="1.0" encoding="utf-8"?>
<!-- Generator: Adobe Illustrator 21.1.0, SVG Export Plug-In . SVG Version: 6.00 Build 0)  -->
<svg version="1.0" id="Layer_1_xA0_Image_1_" xmlns="http://www.w3.org/2000/svg" xmlns:xlink="http://www.w3.org/1999/xlink"
	 x="0px" y="0px" viewBox="0 0 246.5 69.67" enable-background="new 0 0 246.5 69.67" xml:space="preserve">
<metadata><?xpacket begin="﻿" id="W5M0MpCehiHzreSzNTczkc9d"?>
<x:xmpmeta xmlns:x="adobe:ns:meta/" x:xmptk="Adobe XMP Core 5.6-c137 79.159768, 2016/08/11-13:24:42        ">
   <rdf:RDF xmlns:rdf="http://www.w3.org/1999/02/22-rdf-syntax-ns#">
      <rdf:Description rdf:about=""
            xmlns:xmp="http://ns.adobe.com/xap/1.0/"
            xmlns:xmpGImg="http://ns.adobe.com/xap/1.0/g/img/"
            xmlns:dc="http://purl.org/dc/elements/1.1/"
            xmlns:photoshop="http://ns.adobe.com/photoshop/1.0/"
            xmlns:xmpMM="http://ns.adobe.com/xap/1.0/mm/"
            xmlns:stEvt="http://ns.adobe.com/xap/1.0/sType/ResourceEvent#"
            xmlns:stRef="http://ns.adobe.com/xap/1.0/sType/ResourceRef#"
            xmlns:tiff="http://ns.adobe.com/tiff/1.0/"
            xmlns:exif="http://ns.adobe.com/exif/1.0/"
            xmlns:xmpTPg="http://ns.adobe.com/xap/1.0/t/pg/"
            xmlns:stDim="http://ns.adobe.com/xap/1.0/sType/Dimensions#"
            xmlns:stFnt="http://ns.adobe.com/xap/1.0/sType/Font#"
            xmlns:xmpG="http://ns.adobe.com/xap/1.0/g/">
         <xmp:CreatorTool>Adobe Illustrator CC 2017 (Macintosh)</xmp:CreatorTool>
         <xmp:CreateDate>2018-10-01T12:55:44+05:30</xmp:CreateDate>
         <xmp:ModifyDate>2018-10-01T12:55:44+05:30</xmp:ModifyDate>
         <xmp:MetadataDate>2018-10-01T12:55:44+05:30</xmp:MetadataDate>
         <xmp:Thumbnails>
            <rdf:Alt>
               <rdf:li rdf:parseType="Resource">
                  <xmpGImg:width>256</xmpGImg:width>
                  <xmpGImg:height>72</xmpGImg:height>
                  <xmpGImg:format>JPEG</xmpGImg:format>
                  <xmpGImg:image>/9j/4AAQSkZJRgABAgEASABIAAD/7QAsUGhvdG9zaG9wIDMuMAA4QklNA+0AAAAAABAASAAAAAEA&#xA;AQBIAAAAAQAB/+4ADkFkb2JlAGTAAAAAAf/bAIQABgQEBAUEBgUFBgkGBQYJCwgGBggLDAoKCwoK&#xA;DBAMDAwMDAwQDA4PEA8ODBMTFBQTExwbGxscHx8fHx8fHx8fHwEHBwcNDA0YEBAYGhURFRofHx8f&#xA;Hx8fHx8fHx8fHx8fHx8fHx8fHx8fHx8fHx8fHx8fHx8fHx8fHx8fHx8fHx8f/8AAEQgASAEAAwER&#xA;AAIRAQMRAf/EAaIAAAAHAQEBAQEAAAAAAAAAAAQFAwIGAQAHCAkKCwEAAgIDAQEBAQEAAAAAAAAA&#xA;AQACAwQFBgcICQoLEAACAQMDAgQCBgcDBAIGAnMBAgMRBAAFIRIxQVEGE2EicYEUMpGhBxWxQiPB&#xA;UtHhMxZi8CRygvElQzRTkqKyY3PCNUQnk6OzNhdUZHTD0uIIJoMJChgZhJRFRqS0VtNVKBry4/PE&#xA;1OT0ZXWFlaW1xdXl9WZ2hpamtsbW5vY3R1dnd4eXp7fH1+f3OEhYaHiImKi4yNjo+Ck5SVlpeYmZ&#xA;qbnJ2en5KjpKWmp6ipqqusra6voRAAICAQIDBQUEBQYECAMDbQEAAhEDBCESMUEFURNhIgZxgZEy&#xA;obHwFMHR4SNCFVJicvEzJDRDghaSUyWiY7LCB3PSNeJEgxdUkwgJChgZJjZFGidkdFU38qOzwygp&#xA;0+PzhJSktMTU5PRldYWVpbXF1eX1RlZmdoaWprbG1ub2R1dnd4eXp7fH1+f3OEhYaHiImKi4yNjo&#xA;+DlJWWl5iZmpucnZ6fkqOkpaanqKmqq6ytrq+v/aAAwDAQACEQMRAD8A9U4qtkkjjjaSRgkaAs7s&#xA;QAANySThAJNBBIG5YJ5o/Maya0ktdBvo1vC3Fp5FcLx3r6bFSta922zdaPsqXFxZY+nu/W6nVdpR&#xA;4axy9X45PPbfRPM2o3Qlt4ZruZm3uY3Eqhj/ADTKWVevds3stRhxxokRHdy+x00cGWZsAk9/P7U0&#xA;g8+6/pNq1hbXhupA1XupqycabcIue/H3b6AO+NLs3FllxGNeQ2+bfHX5MY4Qb8z+hPdB/Ni/eULq&#xA;8EIs4xW5vVLR+mn8zA8gfYDc9Bvmu13ZeLFAyEq8j1c/R9o5MkhExvzCbWX5z+QbqUxteSWprRWn&#xA;hcK30qHp/sqZoXdMxsr6zvrWO7sp0uLaUVjmiYMrDpsRiqvirsVdirsVdirsVdirsVdirsVdirsV&#xA;dirsVdirsVdirsVdirsVdirsVdirsVS3XfMOl6JZm5v5eANRHEu8khHZF7/qzI02lnmlwxDRn1EM&#xA;UbkXl/mfz7a+YoEs5orjT7ZGLFonWbn4c4z6Vadvjzo9J2bLAeIESPnt9u/3Oh1WvGYcJBiPn9m3&#xA;3oXSfIE+pwR3kOpWqWErFRLKXSQFTQj0yKV/2WT1HascR4ZRPF8PvYYOzZZRxRI4WVWelyaNa/V7&#xA;WOSCEmry1NZGG3JnGx9gNhnNarVTzS4pf2PQabTRwxqKW69qPl3TIPr2uwRzhw3pQsgM87U6K32w&#xA;K9WrQfPYjHq8sPpkQnJpsc/qiHm3mHzdomuRwW36JOlWtuztF9Ul51L0+KVXUeqy8aA8l65DNnnk&#xA;NzNs8WGGMVEUjofy6tIfLC+bbu/ZtE4c0txEYrqRvUMSx0JdE5N+1Vtt6ZU2Mq/JLzDqWo+YL61e&#xA;QxabBZ1tNOjLehCBIoHBSTvuasdydzir2XFXYq7FXYq7FXYq7FXYq7FXYq7FXYq7FXYq7FXYq7FX&#xA;Yq7FXYq7FXYq7FXYq8C1jzRca3crPq0Kysg4xtCTEypUkKD8a037qTnb4NGMIqBr37vIZtUcpuY/&#xA;Qm+ieW/Kc2mDWL3UmigEhh+qSrx/fBeQVnQszKRvUKPozE1Wr1Al4cI3KrvycnT6bAY8c5bXVMqg&#xA;s3uYlNi0VzboAqfVXR1VR2Cqfh+7OZzwyCVzBs970OGUDGoEV5JD5r86nyewgjHqazInOO2JPpxq&#xA;1QHmod/ZB9NO9La841H8wdX1qSP9PW1rqypURCWMxOgY7hHtzC33k4q9D8v/AJZeURpkGt6haXEd&#xA;+EEsuhzzo6IXYiPmoRZOLAcqMfY4q3+Yc8kvkzVC52AtwqgUVVWdAAoGwAxV35FeVr6we71i9AhN&#xA;3AqWtuxHqNEWDmVl6qDQca9evSlVXruKuxV2KuxV2KuxV2KuxV2KuxV2KuxV2KuxV2KuxV2KuxV2&#xA;KuxV2KuxV2KuxV87atoeqaVcPDfW8kXFiqyMpCNTurdCPlneYdRDKLibeLy4J4zUhSYlKeQlf+bV&#xA;GH3W4/rlF/4VX+1/75vr/B/8/wDQl2hXVxa6zZTW8hjkWaOjKabFgCPke+ZGogJY5A8qaMEjGYI7&#xA;0/8ANHmu/l13ULW/t7TUbO3uZoYYLq3jcKiSMoCuAsg6deWavD2VhniiaIJiN78nY5e0ssMkhdgE&#xA;9Gl1LyfpXlW88x6XoUFrr1tLHBAXZ5o0llB4yoJCwHFVY0p1GaXX6L8vIC7BdtotX40SaohKPyt1&#xA;C/v9Y125u5WuLi5t0lmlfdmb10AP/DdMwHNeh2Wo6GzajpjyQ3Wpwxo8ti6eoqKJFozcgU5I5U06&#xA;qaYqm3lZ3bUpWYklomJJ7nkuKspxV2KuxV2KuxV2KuxV2KuxV2KuxV2KuxV2KuxV2KuxV2KuxV2K&#xA;uxV2KuxV2KsCW9u15UlYh/tqTVWr4g7HCDSCLROoQaXqPlhba9tR6az0T6vxhKuFrzFFK1o1Ps5k&#xA;4NZkxz4wbPm0ZtLDJDhI28mNWHkHT31S1e21Jo0WVGMU8fxHiwNFdTxJPuBm1/ly4EGO9Os/kepA&#xA;iWyTecfLms2+valctau9tLcSzLPGC6BJHLjkVrxO/fNnoNVjliiL3AA+Tr9ZppxySNbWSl01hf3X&#xA;kDUY7W2e4eS/tFRUQsxPGQfCB1NWUfTms7ePqj7i7HsYemXwUPL95b+WfLXmL6ldM3mUwwpLLEAY&#xA;beNp1jdI5Qfik+LcjYbcSaZoHdLPyghmm13UyoLEae7OxOw/0iEkkn2BOKvUfIvm3RL/AMxXujWP&#xA;KeeCAzPegj0W4OqMkfcgFx8XQ9tqEqs8xV2KuxV2KuxV2KuxV2KuxV2KuxV2KuxV2KuxV2KuxV2K&#xA;uxV2KuxV2KuxV2KsKm06BpXFncxyqCeKMfTb5fHQH78VRF1YXVtoaCVKEzlyBvRSlBWnyxVLbb/e&#xA;iL/XX9eKvNtRvLuPW7y5jmeO4M8reqjFWqXPcUOd5ixxOOII2oPGZJyGQkHeyn2oectfl/LbVw9y&#xA;xnSeCAXI2k9KcnmtRTrwpXrvnN9saaGKYMRVu/7L1EskSJb0wryVoOpa3Ya9Z2CK0xtoTV2CKKXM&#xA;bGrNQD4VJ+jNO7Rl1/o1t5X/AC81i2s29TULtIVvr8VHJTMitFGDSkdGI33bv4BVDf8AOP8ABK3m&#xA;q/nCkxR2LRu/YM80ZUfSEOKvesVdirsVdirsVdirsVdirsVdirsVdirsVdirsVdirsVdirsVdirs&#xA;VdirsVdirzvFVDzT5j1fStAsVsZ/SM08quxVX+BFUhaOGFKvm37I0uPLKXGLp1faeonjEeE1aV+X&#xA;PPUk2q2dvqdlDMJZUQTxAxOGZgAzKp4MK9uIzN1fY+MRMoEihdOJpu1ZmQjMXaA8z6ToUuvXv6P1&#xA;WIO0rs8NwskarIWPNFl4lTRvGnzOZukz5RijxwPLpX3OJqsOM5DwyHPr+tWl8n3x/LzVzdXNtawP&#xA;NBcLctKssZjhJDHlD6nXn8I6k7Zp+2NRHJKIF7eRH3u17KwShEk9fO/uQv5Y6xZenq2j6dbKlosS&#xA;TNeuCLmdllVKyUJVVo/woPs+JNTmmdqyy98qXHmbR73TophbCQRAzspYDjKjnYEV+FDirLvKvlTS&#xA;PLOmLYadHStDPO395K4H2nP6h0GKpxirsVdirsVdirsVdirsVdirsVdirsVdirsVdirsVdirsVdi&#xA;rsVdirsVdirsVSi78s2MzF42aF2NTTdan2P9cVYz538majdaJax6ePrU9rK8jx7IWWQAHiCe3Ed8&#xA;23ZOqhimePYSdZ2nppZYjh3Ied6Xp2oWvmLTobm2lgmN1DSORGVj+8HQEZ0ebLGWKRiQRwn7nQ4s&#xA;co5Yggg2PvQeqqV1S8VhRhPICD1B5nLcP0R9wa8v1n3lF3U83/KtdZh5n0vrloeFdvi5V29+C/dn&#xA;P9ugcUT5F3fYxPDIe5HfkZ5fuLyfVbyRXjsjCtuswGzSGQSEKT14hN/mM0Lunt9raw20KwwrxRfv&#xA;J8TiqrirsVdirsVdirsVdirsVdirsVdirsVdirsVdirsVdirsVdirsVdirsVdirsVdirsVdirsVY&#xA;xrv5d+XdXnkuXR7a6lPKSaBqcm8WVgy796DNjp+1MuIcI3iO9wM/Z2LIb5HyQkH5W6GNDuNIup55&#xA;4bqaOaV1KxmsJJVRs1BuQf4ZXrdbLUEEiqbNJpBhBAN2yqw0+y0+zisrGFLe1gXjFDGKKB/n1OYT&#xA;lojFXYq7FXYq7FXYq7FXYq7FXYq7FXYq7FXYq7FXYq7FXYq7FXYq7FXYq7FXYq7FXYq//9k=</xmpGImg:image>
               </rdf:li>
            </rdf:Alt>
         </xmp:Thumbnails>
         <dc:format>image/svg+xml</dc:format>
         <photoshop:ColorMode>3</photoshop:ColorMode>
         <photoshop:ICCProfile>sRGB IEC61966-2.1</photoshop:ICCProfile>
         <photoshop:TextLayers>
            <rdf:Bag>
               <rdf:li rdf:parseType="Resource">
                  <photoshop:LayerName>softinator</photoshop:LayerName>
                  <photoshop:LayerText>softinator</photoshop:LayerText>
               </rdf:li>
               <rdf:li rdf:parseType="Resource">
                  <photoshop:LayerName>innovation, coming soon..</photoshop:LayerName>
                  <photoshop:LayerText>innovation, coming soon..</photoshop:LayerText>
               </rdf:li>
               <rdf:li rdf:parseType="Resource">
                  <photoshop:LayerName>softinator.com</photoshop:LayerName>
                  <photoshop:LayerText>softinator.com</photoshop:LayerText>
               </rdf:li>
            </rdf:Bag>
         </photoshop:TextLayers>
         <xmpMM:InstanceID>xmp.iid:be4ae26f-0313-46a2-8a36-62eaa24084fb</xmpMM:InstanceID>
         <xmpMM:DocumentID>xmp.did:be4ae26f-0313-46a2-8a36-62eaa24084fb</xmpMM:DocumentID>
         <xmpMM:OriginalDocumentID>xmp.did:634F284C102068118C14F2AF1ED31ABF</xmpMM:OriginalDocumentID>
         <xmpMM:RenditionClass>proof:pdf</xmpMM:RenditionClass>
         <xmpMM:History>
            <rdf:Seq>
               <rdf:li rdf:parseType="Resource">
                  <stEvt:action>created</stEvt:action>
                  <stEvt:instanceID>xmp.iid:634F284C102068118C14F2AF1ED31ABF</stEvt:instanceID>
                  <stEvt:when>2010-09-03T10:41:54+05:30</stEvt:when>
                  <stEvt:softwareAgent>Adobe Photoshop CS6 (Macintosh)</stEvt:softwareAgent>
               </rdf:li>
               <rdf:li rdf:parseType="Resource">
                  <stEvt:action>converted</stEvt:action>
                  <stEvt:parameters>from image/png to application/vnd.adobe.photoshop</stEvt:parameters>
               </rdf:li>
               <rdf:li rdf:parseType="Resource">
                  <stEvt:action>saved</stEvt:action>
                  <stEvt:instanceID>xmp.iid:644F284C102068118C14F2AF1ED31ABF</stEvt:instanceID>
                  <stEvt:when>2013-12-28T16:54:44+05:30</stEvt:when>
                  <stEvt:softwareAgent>Adobe Photoshop CS6 (Macintosh)</stEvt:softwareAgent>
                  <stEvt:changed>/</stEvt:changed>
               </rdf:li>
               <rdf:li rdf:parseType="Resource">
                  <stEvt:action>saved</stEvt:action>
                  <stEvt:instanceID>xmp.iid:be4ae26f-0313-46a2-8a36-62eaa24084fb</stEvt:instanceID>
                  <stEvt:when>2018-10-01T12:55:44+05:30</stEvt:when>
                  <stEvt:softwareAgent>Adobe Illustrator CC 2017 (Macintosh)</stEvt:softwareAgent>
                  <stEvt:changed>/</stEvt:changed>
               </rdf:li>
            </rdf:Seq>
         </xmpMM:History>
         <xmpMM:DerivedFrom rdf:parseType="Resource">
            <stRef:instanceID>xmp.iid:5d6424a9-6077-448d-97de-2417faedd2c4</stRef:instanceID>
            <stRef:documentID>xmp.did:5d6424a9-6077-448d-97de-2417faedd2c4</stRef:documentID>
            <stRef:originalDocumentID>xmp.did:634F284C102068118C14F2AF1ED31ABF</stRef:originalDocumentID>
            <stRef:renditionClass>proof:pdf</stRef:renditionClass>
         </xmpMM:DerivedFrom>
         <tiff:Orientation>1</tiff:Orientation>
         <tiff:XResolution>720000/10000</tiff:XResolution>
         <tiff:YResolution>720000/10000</tiff:YResolution>
         <tiff:ResolutionUnit>2</tiff:ResolutionUnit>
         <exif:ColorSpace>1</exif:ColorSpace>
         <exif:PixelXDimension>396</exif:PixelXDimension>
         <exif:PixelYDimension>421</exif:PixelYDimension>
         <xmpTPg:NPages>1</xmpTPg:NPages>
         <xmpTPg:HasVisibleTransparency>True</xmpTPg:HasVisibleTransparency>
         <xmpTPg:HasVisibleOverprint>False</xmpTPg:HasVisibleOverprint>
         <xmpTPg:MaxPageSize rdf:parseType="Resource">
            <stDim:w>86.960845</stDim:w>
            <stDim:h>24.578182</stDim:h>
            <stDim:unit>Millimeters</stDim:unit>
         </xmpTPg:MaxPageSize>
         <xmpTPg:Fonts>
            <rdf:Bag>
               <rdf:li rdf:parseType="Resource">
                  <stFnt:fontName>KozGoPro-Regular</stFnt:fontName>
                  <stFnt:fontFamily>小塚ゴシック Pro</stFnt:fontFamily>
                  <stFnt:fontFace>R</stFnt:fontFace>
                  <stFnt:fontType>Open Type</stFnt:fontType>
                  <stFnt:versionString>Version 1.005;PS 1.002;Core 1.0.35;makeotf.lib1.5.4492</stFnt:versionString>
                  <stFnt:composite>False</stFnt:composite>
                  <stFnt:fontFileName>KozGoPro-Regular.otf</stFnt:fontFileName>
               </rdf:li>
               <rdf:li rdf:parseType="Resource">
                  <stFnt:fontName>KozGoPro-Medium</stFnt:fontName>
                  <stFnt:fontFamily>小塚ゴシック Pro</stFnt:fontFamily>
                  <stFnt:fontFace>M</stFnt:fontFace>
                  <stFnt:fontType>Open Type</stFnt:fontType>
                  <stFnt:versionString>Version 1.006;PS 1.003;Core 1.0.35;makeotf.lib1.5.4492</stFnt:versionString>
                  <stFnt:composite>False</stFnt:composite>
                  <stFnt:fontFileName>KozGoPro-Medium.otf</stFnt:fontFileName>
               </rdf:li>
            </rdf:Bag>
         </xmpTPg:Fonts>
         <xmpTPg:PlateNames>
            <rdf:Seq>
               <rdf:li>Cyan</rdf:li>
               <rdf:li>Magenta</rdf:li>
               <rdf:li>Yellow</rdf:li>
               <rdf:li>Black</rdf:li>
            </rdf:Seq>
         </xmpTPg:PlateNames>
         <xmpTPg:SwatchGroups>
            <rdf:Seq>
               <rdf:li rdf:parseType="Resource">
                  <xmpG:groupName>Default Swatch Group</xmpG:groupName>
                  <xmpG:groupType>0</xmpG:groupType>
               </rdf:li>
            </rdf:Seq>
         </xmpTPg:SwatchGroups>
      </rdf:Description>
   </rdf:RDF>
</x:xmpmeta>
                                                                                                    
                                                                                                    
                                                                                                    
                                                                                                    
                                                                                                    
                                                                                                    
                                                                                                    
                                                                                                    
                                                                                                    
                                                                                                    
                                                                                                    
                                                                                                    
                                                                                                    
                                                                                                    
                                                                                                    
                                                                                                    
                                                                                                    
                                                                                                    
                                                                                                    
                                                                                                    
                           
<?xpacket end="w"?>
	</metadata>
<g>
	<path fill="#239DFC" d="M10.61,25.87c-0.1,1.3,0.12,2.7-0.22,4.08c-0.32,1.32-0.78,1.6-2.1,1.37c-1.8-0.32-3.52-0.93-5.28-1.39
		c-2.32-0.61-2.85-1.92-2.96-3.95c-0.11-1.96-0.02-3.93-0.03-5.89c0-0.45,0.13-0.87,0.25-1.27C0.52,18,1.6,17.55,2.63,17.89
		c1.84,0.6,3.72,1.08,5.58,1.64c1.37,0.41,2.47,2.11,2.41,3.25C10.57,23.77,10.61,24.77,10.61,25.87z"/>
	<path fill="#239DFC" d="M23.8,56.9c0-1,0.02-1.99-0.01-2.99c-0.01-0.51,0.13-0.99,0.29-1.45c0.3-0.81,1.33-1.26,2.28-0.88
		c1.64,0.65,3.35,1.07,5.04,1.52c2.02,0.54,2.83,1.88,2.92,3.79c0.09,1.93,0.03,3.86,0.01,5.79c-0.01,0.46-0.09,0.93-0.22,1.37
		c-0.24,0.85-1.05,1.32-2,1.08c-1.97-0.5-3.93-1.02-5.86-1.65c-1.52-0.49-2.45-1.97-2.48-3.59c-0.01-1,0-1.99,0-2.99
		C23.79,56.9,23.79,56.9,23.8,56.9z"/>
	<path fill="#239DFC" d="M34.35,46.73c-0.07,1.18,0.15,2.58-0.19,3.96c-0.25,0.99-0.92,1.36-1.94,1.16c-2-0.39-3.92-1.06-5.88-1.6
		c-1.27-0.35-2.07-1.38-2.36-2.75c-0.3-1.42-0.16-2.85-0.16-4.27c0-1.05-0.13-2.1,0.12-3.16c0.46-1.96,1.46-1.95,2.82-1.62
		c1.88,0.47,3.72,1.14,5.54,1.83c1.35,0.51,1.96,1.54,2.05,3.24C34.39,44.52,34.35,45.52,34.35,46.73z"/>
	<path fill="#239DFC" d="M22.27,60.11c-0.34,1.37-0.93,1.72-2.28,1.39c-1.86-0.46-3.67-1.06-5.48-1.65
		c-1.69-0.55-2.34-1.6-2.47-3.44c-0.14-2.11-0.06-4.24-0.03-6.36c0.03-1.71,1.24-2.46,2.85-1.92c1.46,0.49,2.95,0.9,4.44,1.29
		c1.44,0.38,2.58,1.05,2.97,2.6"/>
	<path fill="#239DFC" d="M24.1,26.59c0.26-1.67,1.14-1.66,2.55-1.38c1.72,0.34,3.38,0.93,5.06,1.47c1.68,0.54,2.67,1.95,2.67,3.72
		c0,1.93-0.03,3.85-0.02,5.78c0,0.51-0.08,0.98-0.2,1.45c-0.16,0.6-0.58,0.96-1.34,0.95c-0.62-0.01-1.23-0.11-1.83-0.24
		c-1.44-0.44-2.91-0.81-4.34-1.26c-1.23-0.39-2.21-1.09-2.52-2.46"/>
	<path fill="#239DFC" d="M12.32,23.04c0.16-1.58,1.26-1.68,2.56-1.34c1.64,0.43,3.25,0.95,4.9,1.38c1.72,0.45,2.81,1.89,2.81,3.7
		c0.01,1.9,0,3.8,0,5.7c0,0.25,0,0.5-0.05,0.74c-0.36,1.71-1.09,2.14-2.81,1.65c-1.63-0.47-3.26-0.95-4.9-1.39
		c-1.45-0.39-2.28-1.3-2.51-2.76"/>
	<path fill="#CCCCCC" d="M0.18,36.45c0-1.06-0.01-2.12,0-3.18c0.03-1.64,0.94-2.41,2.48-1.93c1.75,0.55,3.54,0.91,5.28,1.46
		c1.71,0.54,2.45,1.85,2.49,3.33c0.06,1.99,0.03,3.99,0.01,5.98c-0.01,0.46-0.09,0.93-0.21,1.37c-0.24,0.87-0.94,1.26-1.89,1.01
		c-1.56-0.4-3.11-0.84-4.65-1.29c-0.65-0.19-1.3-0.35-1.9-0.72c-1.05-0.65-1.55-1.58-1.6-2.77C0.15,38.63,0.18,37.54,0.18,36.45z"/>
	<path fill="#CCCCCC" d="M10.29,52.53c0,1.06,0.01,2.12,0,3.17c-0.02,1.72-0.84,2.36-2.48,1.96c-1.93-0.46-3.81-1.08-5.69-1.72
		c-1.22-0.42-1.86-1.42-1.91-2.63c-0.09-2.42-0.06-4.85-0.02-7.28c0.02-1.35,1.09-2.03,2.41-1.58c1.58,0.53,3.17,1.03,4.79,1.42
		c1.85,0.45,2.96,1.67,2.9,3.76C10.27,50.6,10.29,51.57,10.29,52.53z"/>
	<path fill="#CCCCCC" d="M22.44,42.98c0,1.15,0.02,2.31,0,3.46c-0.03,1.42-0.93,2.08-2.27,1.69c-1.76-0.51-3.52-1-5.27-1.5
		c-0.89-0.26-1.64-0.69-2.14-1.52c-0.3-0.5-0.43-1.02-0.43-1.59c0-2.24-0.01-4.49,0-6.73c0.01-1.59,1.07-2.42,2.53-1.87
		c1.75,0.65,3.56,1.1,5.3,1.75c1.47,0.54,2.27,1.59,2.28,3.15C22.45,40.86,22.44,41.92,22.44,42.98z"/>
	<path fill="#676767" d="M36.11,33.12c0.05-1.4-0.16-2.8,0.08-4.19c0.23-1.28,0.82-2.33,1.78-3.19c1.02-0.91,2.03-1.83,3.04-2.76
		c0.36-0.33,0.75-0.63,1.24-0.42c0.46,0.19,0.55,0.69,0.55,1.11c0,2.58,0.36,5.15,0.04,7.73c-0.16,1.28-0.69,2.39-1.67,3.24
		c-1.15,1-2.31,1.99-3.49,2.95c-0.94,0.76-1.46,0.57-1.55-0.65C36.04,35.68,36.11,34.4,36.11,33.12z"/>
	<path fill="#686868" d="M36.23,56.5c0-1.84,0.62-3.39,2.08-4.58c0.99-0.8,1.91-1.69,2.87-2.53c0.33-0.29,0.69-0.58,1.17-0.44
		c0.53,0.15,0.48,0.67,0.6,1.07c0.01,0.03,0.02,0.06,0.02,0.09c-0.01,2.55,0.15,5.1-0.09,7.64c-0.13,1.36-0.74,2.49-1.77,3.38
		c-1.12,0.98-2.25,1.96-3.38,2.93c-0.28,0.24-0.58,0.55-0.99,0.36c-0.39-0.17-0.46-0.57-0.46-0.95c-0.01-1.34,0-2.67,0-4.01"/>
	<path fill="#686868" d="M36.26,46.2c0-1.18-0.03-2.37,0.01-3.55c0.05-1.33,0.54-2.48,1.52-3.4c1.14-1.06,2.28-2.12,3.45-3.15
		c0.83-0.73,1.52-0.49,1.69,0.6c0.08,0.52,0.07,1.06,0.06,1.58c-0.06,2.15,0.16,4.3-0.14,6.44c-0.16,1.15-0.64,2.15-1.48,2.94
		c-1.06,1-2.15,1.98-3.26,2.94c-0.38,0.33-0.77,0.87-1.36,0.56c-0.54-0.28-0.49-0.9-0.5-1.42"/>
	<path fill="#686868" d="M58.57,39.75c0,1,0.01,1.99,0,2.99c-0.03,1.89-0.6,3.5-2.2,4.7c-1.04,0.78-1.94,1.75-2.92,2.61
		c-0.94,0.82-1.34,0.66-1.55-0.58c-0.05-0.3-0.06-0.62-0.06-0.93c-0.01-1.93-0.01-3.86,0-5.79c0.01-1.85,0.57-3.47,2.06-4.7
		c0.95-0.8,1.84-1.68,2.74-2.53c0.21-0.19,0.41-0.38,0.68-0.49c0.6-0.24,0.95-0.09,1.14,0.53c0.11,0.36,0.12,0.73,0.12,1.11
		C58.57,37.7,58.57,38.72,58.57,39.75z"/>
	<path fill="#686868" d="M50.86,33.77c-0.09,1.18,0.15,2.62-0.15,4.04c-0.23,1.14-0.78,2.08-1.65,2.86
		c-1.06,0.96-2.1,1.95-3.15,2.93c-0.2,0.19-0.41,0.4-0.65,0.52c-0.43,0.22-0.81,0.13-0.94-0.38c-0.1-0.42-0.18-0.86-0.18-1.29
		c-0.03-2.06-0.06-4.11-0.05-6.17c0.01-1.8,0.61-3.33,2.03-4.52c0.96-0.8,1.85-1.67,2.77-2.51c0.18-0.17,0.37-0.34,0.58-0.46
		c0.63-0.34,1.07-0.15,1.28,0.53c0.14,0.46,0.09,0.93,0.09,1.39C50.87,31.65,50.86,32.59,50.86,33.77z"/>
	<path fill="#CCCCCC" d="M50.86,47.06c-0.09,1.22,0.16,2.69-0.18,4.13c-0.19,0.8-0.5,1.56-1.05,2.15c-1.28,1.39-2.69,2.66-4.18,3.83
		c-0.61,0.47-0.96,0.36-1.12-0.36c-0.1-0.42-0.21-0.83-0.21-1.28c0.02-2.05-0.02-4.11,0.01-6.16c0.02-1.53,0.44-2.96,1.59-4.04
		c0.63-0.59,1.27-1.18,1.94-1.74c0.48-0.4,0.92-0.83,1.39-1.24c0.84-0.73,1.47-0.53,1.74,0.56c0.07,0.27,0.07,0.55,0.07,0.83
		C50.86,44.77,50.86,45.8,50.86,47.06z"/>
	<path fill="#CCCCCC" d="M58.54,26.93c-0.11,1.19,0.18,2.65-0.18,4.1c-0.32,1.28-0.93,2.32-2,3.14c-0.93,0.71-1.75,1.58-2.63,2.37
		c-0.21,0.19-0.41,0.39-0.64,0.53c-0.52,0.3-0.92,0.16-1.07-0.41c-0.12-0.44-0.23-0.89-0.22-1.37c0.03-1.9-0.01-3.8,0.02-5.7
		c0.03-1.98,0.68-3.72,2.28-4.98c0.86-0.68,1.6-1.48,2.39-2.22c0.23-0.21,0.44-0.44,0.73-0.56c0.64-0.26,0.95-0.1,1.19,0.57
		c0.24,0.67,0.1,1.36,0.13,2.03C58.56,25.18,58.54,25.92,58.54,26.93z"/>
	<path fill="#239DFC" d="M10.68,19.07c-1.47-0.04-2.83-0.59-4.23-0.93c-0.87-0.21-1.72-0.47-2.58-0.71
		c-0.18-0.05-0.37-0.08-0.52-0.17c-0.88-0.51-0.9-1.04-0.05-1.59c1.3-1.01,2.64-1.96,3.93-2.97c0.78-0.61,1.67-0.9,2.65-1
		c1.43-0.15,2.73,0.36,4.06,0.73c1.13,0.31,2.26,0.6,3.39,0.94c0.84,0.25,1.15,1.07,0.52,1.53c-1.86,1.37-3.42,3.18-5.69,3.96
		C11.66,19.02,11.18,19.04,10.68,19.07z"/>
	<path fill="#676767" d="M58.35,9.4c0.12,2.67,0.15,5.35-0.02,8.02c-0.08,1.2-0.61,2.28-1.53,3.12c-1.12,1.03-2.26,2.04-3.39,3.06
		c-0.31,0.28-0.64,0.56-1.07,0.37c-0.43-0.18-0.51-0.62-0.53-1.02c-0.04-0.9-0.04-1.8-0.05-2.71c-0.01-1.4,0-2.8,0-4.2
		c-0.01-1.75,0.63-3.2,1.95-4.36c1.05-0.92,2.05-1.9,3.09-2.84c0.73-0.67,1.23-0.54,1.53,0.37C58.18,9.28,58.21,9.34,58.35,9.4z"/>
	<path fill="#CCCCCC" d="M50.68,20.52c0,0.97-0.05,1.93,0.01,2.89c0.13,1.98-0.71,3.48-2.19,4.69c-0.84,0.69-1.69,1.37-2.47,2.12
		c-0.04,0.04-0.08,0.1-0.14,0.13c-0.42,0.21-0.75,0.8-1.31,0.48c-0.49-0.28-0.47-0.83-0.47-1.34c0-2.33,0-4.67,0-7
		c0-1.31,0.5-2.41,1.39-3.35c1.11-1.18,2.42-2.14,3.53-3.32c0.3-0.32,0.71-0.59,1.17-0.36c0.4,0.2,0.47,0.63,0.48,1.05
		C50.68,17.84,50.68,19.18,50.68,20.52C50.68,20.52,50.68,20.52,50.68,20.52z"/>
	<path fill="#686868" d="M33.43,24.94c-2.34-0.33-4.61-0.99-6.86-1.68c-1.06-0.33-1.16-0.97-0.31-1.69
		c1.35-1.15,2.71-2.29,4.13-3.35c1.1-0.82,2.45-0.75,3.69-0.47c2,0.44,3.98,1.01,5.95,1.58c0.9,0.26,1.06,0.92,0.36,1.51
		c-1.45,1.23-2.85,2.52-4.46,3.53C35.19,24.83,34.35,25.08,33.43,24.94z"/>
	<path fill="#CCCCCC" d="M22.36,21.76c-1.74-0.11-3.39-0.64-5.08-1.01c-0.72-0.16-1.46-0.3-2.16-0.54
		c-1.03-0.34-1.16-0.92-0.33-1.58c1.48-1.17,2.98-2.33,4.53-3.4c0.95-0.65,2.11-0.8,3.22-0.51c1.74,0.45,3.46,0.91,5.22,1.3
		c0.61,0.13,1.4,0.25,1.53,1.02c0.11,0.64-0.55,0.94-0.95,1.28c-1.15,0.94-2.29,1.89-3.53,2.72C24.06,21.54,23.28,21.82,22.36,21.76
		z"/>
	<path fill="#239DFC" d="M25.56,7.06c1.22,0.46,1.35,1.14,0.32,1.92c-1.24,0.93-2.36,2-3.66,2.86c-0.82,0.54-1.7,0.69-2.63,0.78
		c-1.55-0.16-3.01-0.64-4.5-1.04c-0.71-0.19-1.42-0.39-2.14-0.56c-0.34-0.08-0.65-0.22-0.93-0.41c-0.58-0.39-0.62-0.85-0.05-1.27
		c1.52-1.12,3.03-2.25,4.61-3.28c1.13-0.74,2.5-0.62,3.71-0.35"/>
	<path fill="#686868" d="M40.83,11.14c1.66,0.14,3.03,0.63,4.42,0.94c0.87,0.19,1.77,0.36,2.59,0.74c0.95,0.45,1.05,0.98,0.25,1.68
		c-1.1,0.96-2.23,1.89-3.37,2.8c-1.33,1.05-2.86,1.09-4.43,0.7c-1.72-0.42-3.39-1-5.12-1.37c-0.21-0.04-0.41-0.14-0.6-0.25
		c-0.54-0.31-0.61-0.65-0.23-1.14c0.13-0.17,0.3-0.31,0.47-0.44c1.16-0.94,2.36-1.82,3.49-2.8C39.07,11.31,40.02,11.13,40.83,11.14z
		"/>
	<path fill="#CCCCCC" d="M30.82,15.38c-1.26,0.01-2.41-0.51-3.62-0.77c-1.03-0.23-2.03-0.53-3.05-0.81
		c-0.24-0.07-0.48-0.14-0.7-0.25c-0.77-0.37-0.86-0.78-0.21-1.32c1.1-0.91,2.33-1.66,3.37-2.62c1.52-1.4,3.24-1.36,5.05-0.95
		c1.51,0.34,3,0.74,4.5,1.12c0.18,0.05,0.36,0.11,0.52,0.19c0.88,0.4,0.99,0.81,0.28,1.43c-1.26,1.1-2.36,2.38-3.79,3.29
		C32.46,15.15,31.67,15.38,30.82,15.38z"/>
	<path fill="#239DFC" d="M32.05,7.92c-0.48-0.25-1.12-0.33-1.19-1.02c-0.07-0.66,0.51-0.84,0.92-1.15c0.97-0.72,1.93-1.46,2.87-2.22
		c0.88-0.72,1.86-1.06,2.96-1.19c1.13,0.05,1.94,0.38,2.9,0.65c1.18,0.34,2.42,0.54,3.59,0.95c0.34,0.12,0.61,0.3,0.85,0.54
		c0.32,0.3,0.4,0.68,0.04,0.97c-1.77,1.42-3.33,3.15-5.65,3.79c-0.83,0.23-1.63,0.08-2.37-0.12"/>
	<path fill="#686868" d="M49.66,12.1c-0.8-0.01-1.51-0.18-2.21-0.37c-1.41-0.38-2.83-0.75-4.24-1.13c-0.24-0.06-0.48-0.13-0.7-0.24
		c-0.82-0.4-0.92-1-0.24-1.59c0.47-0.41,1-0.74,1.5-1.12c0.71-0.55,1.46-1.05,2.16-1.64c0.99-0.84,2.21-0.92,3.37-0.62
		c1.63,0.42,3.29,0.68,4.91,1.12c0.12,0.03,0.25,0.03,0.37,0.07c0.53,0.18,1.17,0.28,1.3,0.92c0.14,0.62-0.33,1.02-0.78,1.38
		c-0.87,0.71-1.71,1.45-2.59,2.14C51.65,11.7,50.74,12.13,49.66,12.1z"/>
	<path fill="#239DFC" d="M27,0.01c1.38-0.07,2.66,0.45,3.98,0.74c0.81,0.18,1.58,0.49,2.4,0.64c0.39,0.08,0.82,0.25,0.94,0.67
		c0.13,0.44-0.17,0.8-0.48,1.04c-1.23,0.93-2.5,1.83-3.76,2.72c-1.4,0.99-2.92,0.8-4.45,0.41c-1.46-0.37-2.92-0.75-4.38-1.12
		c-0.06-0.02-0.13,0-0.18-0.02c-0.48-0.15-1.04-0.29-1.16-0.81c-0.12-0.51,0.39-0.79,0.75-1.07c1.19-0.89,2.38-1.78,3.59-2.63
		C25.07,0.02,26.08,0.06,27,0.01z"/>
	<path fill="#5C5C5C" d="M58.35,9.4c-0.14-0.05-0.17-0.11-0.01-0.19C58.34,9.27,58.35,9.33,58.35,9.4z"/>
</g>
<g>
	<path fill="#FFFFFF" d="M85.84,20.56c-0.87-0.55-2.37-1.23-4.15-1.23c-2.06,0-3.17,1.19-3.17,2.65c0,1.5,0.99,2.26,3.64,3.4
		c3.6,1.46,5.5,3.44,5.5,6.61c0,4.19-3.2,6.69-8.15,6.69c-2.29,0-4.47-0.59-5.94-1.46l1.03-3.4c1.11,0.67,3.13,1.46,4.99,1.46
		c2.45,0,3.64-1.19,3.64-2.85c0-1.66-0.91-2.57-3.52-3.68c-3.88-1.54-5.58-3.72-5.58-6.25c0-3.64,2.97-6.53,7.56-6.53
		c2.14,0,4,0.59,5.18,1.27L85.84,20.56z"/>
	<path fill="#FFFFFF" d="M110.92,27.17c0,8.15-5.3,11.51-10.21,11.51c-5.66,0-9.97-4.15-9.97-11.2c0-7.36,4.51-11.51,10.29-11.51
		C107,15.97,110.92,20.48,110.92,27.17z M100.87,19.41c-3.92,0-5.42,4.19-5.42,7.95c0,4.27,2.02,7.87,5.38,7.87
		c3.32,0,5.38-3.6,5.38-7.95C106.21,23.68,104.71,19.41,100.87,19.41z"/>
	<path fill="#FFFFFF" d="M116.06,16.44c0-2.37,0-5.9,2.45-8.35c1.5-1.46,3.52-2.02,5.3-2.02c1.42,0,2.53,0.28,3.32,0.59l-0.47,3.52
		c-0.59-0.24-1.27-0.44-2.33-0.44c-2.85,0-3.72,2.57-3.72,5.5v1.19h4.79v3.44h-4.75v18.36h-4.59V19.89h-2.93v-3.44H116.06z"/>
	<path fill="#FFFFFF" d="M129.51,12.49l4.55-1.42v5.38h5.18v3.44h-5.18v11.04c0,2.69,0.83,4,2.77,4c0.91,0,1.46-0.12,2.02-0.28
		l0.16,3.52c-0.79,0.32-2.02,0.51-3.56,0.51c-1.82,0-3.36-0.59-4.31-1.66c-1.11-1.19-1.62-3.01-1.62-5.86V19.89h-3.09v-3.44h3.09
		V12.49z"/>
	<path fill="#FFFFFF" d="M145.49,13.08c-1.58,0-2.65-1.19-2.65-2.65c0-1.54,1.11-2.69,2.69-2.69c1.58,0,2.65,1.15,2.65,2.69
		C148.18,11.89,147.15,13.08,145.49,13.08z M147.79,38.24h-4.59V16.4h4.59V38.24z"/>
	<path fill="#FFFFFF" d="M171.25,38.24h-3.28V25.5c0-3.52-1.27-6.61-5.02-6.61c-2.81,0-5.66,2.37-5.66,6.13v13.21H154V22.22
		c0-2.22-0.08-3.84-0.16-5.58h2.93l0.2,3.52h0.08c1.07-2.1,3.56-4,6.92-4c2.69,0,7.28,1.62,7.28,8.94V38.24z"/>
	<path fill="#FFFFFF" d="M191.74,33.1c0,1.78,0.04,3.64,0.32,5.14h-3.01l-0.32-2.77h-0.12c-1.11,1.7-3.32,3.24-6.37,3.24
		c-4.12,0-6.29-3.01-6.29-6.13c0-5.18,4.51-7.99,12.5-7.95c0-1.82,0-5.93-4.91-5.93c-1.86,0-3.8,0.51-5.26,1.54l-0.79-2.26
		c1.74-1.15,4.15-1.82,6.57-1.82c6.09,0,7.68,4.31,7.68,8.59V33.1z M188.5,27.05c-4.08,0-9.18,0.59-9.18,5.14c0,2.77,1.74,4,3.72,4
		c3.21,0,5.46-2.45,5.46-5.06V27.05z"/>
	<path fill="#FFFFFF" d="M198.94,12.76l3.24-1.11v5.02h5.58v2.57h-5.58v12.46c0,2.73,0.83,4.23,2.93,4.23
		c0.99,0,1.66-0.12,2.22-0.32l0.2,2.53c-0.71,0.32-1.82,0.51-3.21,0.51c-5.22,0-5.38-4.75-5.38-7.04V19.25h-3.32v-2.57h3.32V12.76z"
		/>
	<path fill="#FFFFFF" d="M230.39,27.28c0,8.03-5.3,11.43-10.09,11.43c-5.54,0-9.81-4.15-9.81-11.12c0-7.36,4.59-11.43,10.09-11.43
		C226.47,16.17,230.39,20.68,230.39,27.28z M220.46,18.74c-4.67,0-6.61,4.59-6.61,8.74c0,4.79,2.65,8.66,6.53,8.66
		c3.92,0,6.65-3.88,6.65-8.74C227.03,23.56,225.17,18.74,220.46,18.74z"/>
	<path fill="#FFFFFF" d="M245.22,19.45c-0.36-0.04-0.71-0.08-1.19-0.08c-3.56,0-5.38,3.52-5.38,7.16v11.71h-3.28V23.13
		c0-2.29-0.04-4.39-0.16-6.45h2.89l0.16,4.15h0.12c0.95-2.69,3.21-4.63,5.86-4.63c0.36,0,0.63,0.08,0.99,0.12V19.45z"/>
</g>
<g>
	<path fill="#FFFFFF" d="M173.59,49.1h-4.09v13.17h-2.29V49.1h-4.07v-1.96h10.46V49.1z"/>
	<path fill="#FFFFFF" d="M182.55,61.84c-0.77,0.36-1.98,0.65-3.46,0.65c-3.28,0-5.18-2.2-5.18-5.52c0-3.24,1.82-5.83,4.9-5.83
		c3.07,0,4.29,2.55,4.29,5.24c0,0.38-0.02,0.69-0.06,0.97h-6.92c0.06,2.45,1.58,3.38,3.3,3.38c1.21,0,2.04-0.22,2.75-0.51
		L182.55,61.84z M180.93,55.71c0.02-1.3-0.51-2.93-2.27-2.93c-1.68,0-2.39,1.66-2.51,2.93H180.93z"/>
	<path fill="#FFFFFF" d="M192.66,61.94c-0.51,0.24-1.54,0.55-2.81,0.55c-3.14,0-5.2-2.16-5.2-5.56c0-3.3,2.14-5.79,5.64-5.79
		c1.05,0,1.96,0.26,2.43,0.49l-0.46,1.76c-0.4-0.2-1.03-0.44-1.96-0.44c-2.13,0-3.32,1.74-3.32,3.88c0,2.39,1.4,3.82,3.3,3.82
		c0.91,0,1.54-0.22,2.06-0.43L192.66,61.94z"/>
	<path fill="#FFFFFF" d="M203.72,62.27h-2.29V55.9c0-1.56-0.53-2.87-2.08-2.87c-1.13,0-2.33,0.93-2.33,2.57v6.66h-2.29V46.41h2.29
		v6.45h0.04c0.71-1.13,1.94-1.72,3.12-1.72c1.64,0,3.54,1.11,3.54,4.55V62.27z"/>
	<path fill="#FFFFFF" d="M214.85,62.27h-8.13V47.15h2.29v13.19h5.83V62.27z"/>
	<path fill="#FFFFFF" d="M224.41,59.68c0,0.93,0.02,1.88,0.16,2.59h-2.08l-0.16-1.27h-0.06c-0.61,0.85-1.68,1.48-3.04,1.48
		c-2.04,0-3.2-1.5-3.2-3.18c0-2.71,2.35-4.05,6.09-4.05c0-0.81,0-2.43-2.2-2.43c-0.97,0-1.96,0.3-2.65,0.75l-0.47-1.52
		c0.77-0.49,2.06-0.91,3.52-0.91c3.2,0,4.09,2.12,4.09,4.43V59.68z M222.17,56.8c-1.8,0-3.88,0.34-3.88,2.27
		c0,1.21,0.75,1.74,1.6,1.74c1.25,0,2.27-0.95,2.27-2.21V56.8z"/>
	<path fill="#FFFFFF" d="M229.63,52.9c0.65-1.11,1.78-1.76,3.3-1.76c2.49,0,4.21,2.2,4.21,5.52c0,3.97-2.31,5.83-4.57,5.83
		c-1.4,0-2.49-0.57-3.22-1.86h-0.06l-0.12,1.64h-1.96c0.04-0.73,0.08-1.92,0.08-2.91V46.41h2.29v6.49H229.63z M229.59,57.96
		c0,1.38,0.99,2.69,2.49,2.69c1.76,0,2.73-1.56,2.73-3.9c0-2.06-0.89-3.78-2.71-3.78c-1.44,0-2.51,1.4-2.51,2.85V57.96z"/>
	<path fill="#FFFFFF" d="M244.82,53.43c-0.43-0.28-1.19-0.61-2.08-0.61c-1.03,0-1.58,0.59-1.58,1.32c0,0.75,0.49,1.13,1.82,1.7
		c1.8,0.73,2.75,1.72,2.75,3.3c0,2.1-1.6,3.34-4.07,3.34c-1.15,0-2.23-0.3-2.97-0.73l0.51-1.7c0.55,0.34,1.56,0.73,2.49,0.73
		c1.23,0,1.82-0.59,1.82-1.42c0-0.83-0.45-1.29-1.76-1.84c-1.94-0.77-2.79-1.86-2.79-3.12c0-1.82,1.48-3.26,3.78-3.26
		c1.07,0,2,0.3,2.59,0.63L244.82,53.43z"/>
</g>
</svg>
